<svg xmlns="http://www.w3.org/2000/svg" viewBox="0 0 24 24"><path fill="#10A37F" d="M22.28 9.82c-.22-2.14-1.22-4.07-2.82-5.45A9.94 9.94 0 0 0 12.93 2a9.97 9.97 0 0 0-8.48 4.77A9.97 9.97 0 0 0 3.5 15.2a9.97 9.97 0 0 0 6.22 5.93l.3-.1c.06-.02.11-.08.12-.15l.32-1.63c.02-.1-.04-.2-.14-.23a6.48 6.48 0 0 1-4.07-3.9 6.47 6.47 0 0 1 .65-6.01 6.48 6.48 0 0 1 5.5-3.1c1.6 0 3.1.57 4.3 1.6l-2.32 1.34a3.8 3.8 0 0 0-2-.56 3.85 3.85 0 0 0-3.34 1.93 3.85 3.85 0 0 0-.38 3.62 3.85 3.85 0 0 0 2.54 2.23 3.84 3.84 0 0 0 3.25-.48l-1.11-.65c-.08-.05-.1-.15-.05-.23l.65-1.11c.05-.08.15-.1.23-.05l2.5 1.44c.08.05.12.13.1.22-.19.94-.65 1.8-1.34 2.5a6.47 6.47 0 0 1-4.59 1.9 6.47 6.47 0 0 1-2.43-.47l-.32 1.64a8.98 8.98 0 0 0 2.75.43 9.95 9.95 0 0 0 7.17-3.06 9.9 9.9 0 0 0 2.57-7.51Z"/></svg>